<?xml version="1.0" encoding="utf-8"?>
<svg version="1.1" id="alexVolk" xmlns="http://www.w3.org/2000/svg" xmlns:xlink="http://www.w3.org/1999/xlink" x="0px" y="0px" viewBox="0 0 64 64" enable-background="new 0 0 64 64" xml:space="preserve">
<rect id="background" y="0" fill="#FFFFFF" width="64" height="64"/>
<path id="alexVolkPath" fill="#010101" d="M33.95,12c0.55,0.79,1.09,1.58,1.64,2.36c0.46,0.66,0.91,1.33,1.37,2
	c0.42,0.62,0.85,1.23,1.28,1.84c0.51,0.74,1.03,1.49,1.54,2.23c0.58,0.83,1.16,1.66,1.74,2.5c0.4,0.57,0.79,1.15,1.19,1.73
	c0.58,0.84,1.17,1.67,1.75,2.51c0.54,0.78,1.08,1.57,1.62,2.35c0.12,0.17,0.25,0.34,0.38,0.52c0.38-0.54,0.76-1.08,1.13-1.62
	c0.44-0.64,0.88-1.28,1.32-1.92c0.51-0.73,1.01-1.47,1.52-2.2c0.52-0.74,1.04-1.48,1.56-2.22c0.46-0.66,0.91-1.32,1.36-1.98
	c0.23-0.34,0.47-0.68,0.71-1.02c0.03-0.04,0.12-0.05,0.19-0.05c1.98,0,3.96,0,5.94,0h1.05L50.04,35.24L56.81,45
	c-0.07,0.01-0.12,0.01-0.17,0.01c-2.25,0-4.5,0-6.75,0.01c-0.12,0-0.22-0.06-0.29-0.17c-0.47-0.68-0.95-1.37-1.42-2.05
	c-0.43-0.63-0.86-1.25-1.29-1.88c-0.12-0.18-0.26-0.35-0.39-0.54c-0.27,0.38-0.54,0.77-0.8,1.15c-0.47,0.68-0.94,1.37-1.42,2.05
	c-0.31,0.44-0.61,0.89-0.93,1.33c-0.03,0.05-0.09,0.08-0.14,0.09c-2.36,0-4.71,0-7.12,0c2.28-3.3,4.54-6.56,6.81-9.84l-8.98-12.96
	L23.04,38l2.63,3.82c0.2-0.28,0.38-0.54,0.57-0.8c0.4-0.58,0.8-1.16,1.2-1.74c0.4-0.58,0.8-1.16,1.2-1.74
	c0.38-0.55,0.77-1.11,1.16-1.66c0.06-0.06,0.14-0.08,0.21-0.08c1.94,0,3.88-0.01,5.81,0h1.12c-0.17,0.26-0.32,0.48-0.48,0.7
	c-0.44,0.64-0.87,1.27-1.31,1.91c-0.64,0.92-1.28,1.85-1.92,2.77c-0.64,0.92-1.28,1.85-1.92,2.77c-0.48,0.7-0.97,1.4-1.45,2.1
	c-0.61,0.88-1.23,1.76-1.84,2.65c-0.48,0.69-0.95,1.38-1.43,2.07c-0.27,0.39-0.54,0.78-0.81,1.17c-0.03,0.07-0.11,0.1-0.18,0.07
	c-0.03-0.01-0.05-0.04-0.06-0.07c-0.41-0.61-0.83-1.22-1.24-1.82c-0.64-0.93-1.29-1.87-1.94-2.8c-0.63-0.91-1.26-1.82-1.89-2.72
	c-0.31-0.45-0.63-0.91-0.95-1.36c-0.01-0.02-0.03-0.03-0.05-0.04c-0.39,0.57-0.78,1.14-1.17,1.71c-0.05,0.07-0.13,0.12-0.21,0.13
	c-2.32,0.01-4.63,0.01-6.95,0.01c-0.03,0-0.06,0-0.13-0.01c0.2-0.3,0.39-0.57,0.57-0.85c0.52-0.75,1.03-1.5,1.55-2.25
	c0.64-0.92,1.28-1.85,1.92-2.77c0.25-0.35,0.5-0.71,0.75-1.05c0.06-0.06,0.06-0.16,0.01-0.22c0,0,0,0,0,0l0,0l0,0
	c-0.27-0.39-0.54-0.77-0.81-1.16c-0.43-0.62-0.86-1.25-1.29-1.88c-0.51-0.73-1.02-1.46-1.53-2.2c-0.43-0.62-0.86-1.25-1.29-1.88
	c-0.58-0.83-1.16-1.66-1.74-2.5c-0.4-0.57-0.79-1.15-1.19-1.73c-0.54-0.78-1.09-1.56-1.64-2.35c-0.4-0.57-0.79-1.15-1.19-1.73
	c-0.62-0.89-1.24-1.78-1.86-2.67c-0.17-0.24-0.33-0.48-0.51-0.74c0.09,0,0.15-0.01,0.21-0.01c2.27,0,4.55,0,6.82-0.01
	c0.11-0.01,0.22,0.05,0.28,0.16c0.59,0.85,1.18,1.71,1.77,2.56c0.45,0.65,0.88,1.31,1.33,1.96c0.47,0.68,0.95,1.35,1.42,2.03
	c0.4,0.58,0.8,1.17,1.21,1.76c0.46,0.67,0.92,1.34,1.38,2.01s0.92,1.34,1.38,2.01c0.28,0.4,0.56,0.8,0.83,1.2
	c0.02,0.03,0.05,0.05,0.08,0.07c0.14-0.2,0.27-0.38,0.4-0.57c0.4-0.58,0.81-1.17,1.21-1.75c0.39-0.57,0.78-1.14,1.18-1.71
	c0.52-0.74,1.04-1.48,1.56-2.22c0.45-0.65,0.9-1.3,1.35-1.95c0.44-0.63,0.88-1.27,1.31-1.9c0.54-0.79,1.09-1.58,1.63-2.37
	c0.51-0.73,1.02-1.46,1.53-2.2c0.43-0.62,0.86-1.25,1.29-1.88c0.54-0.78,1.09-1.56,1.64-2.35c0.4-0.57,0.79-1.15,1.19-1.73
	c0.05-0.06,0.1-0.11,0.16-0.16H33.95z"/>
</svg>
