<?xml version="1.0" encoding="utf-8"?>
<!-- Generator: Adobe Illustrator 27.6.1, SVG Export Plug-In . SVG Version: 6.00 Build 0)  -->
<svg version="1.1" id="alexVolk" xmlns="http://www.w3.org/2000/svg" xmlns:xlink="http://www.w3.org/1999/xlink" x="0px" y="0px"
	 viewBox="0 0 32 32" enable-background="new 0 0 32 32" xml:space="preserve">
<rect id="background" y="0" fill="#FFFFFF" width="32" height="32"/>
<path id="alexVolkPath" fill="#010101" d="M16.98,6c0.27,0.39,0.55,0.79,0.82,1.18c0.23,0.33,0.45,0.67,0.68,1
	c0.21,0.31,0.43,0.61,0.64,0.92c0.26,0.37,0.51,0.75,0.77,1.12c0.29,0.42,0.58,0.83,0.87,1.25c0.2,0.29,0.39,0.58,0.59,0.86
	c0.29,0.42,0.58,0.84,0.87,1.26c0.27,0.39,0.54,0.79,0.81,1.18c0.06,0.09,0.12,0.17,0.19,0.26c0.19-0.27,0.38-0.54,0.57-0.81
	c0.22-0.32,0.44-0.64,0.66-0.96c0.25-0.37,0.5-0.74,0.76-1.1c0.26-0.37,0.52-0.74,0.78-1.11c0.23-0.33,0.45-0.66,0.68-0.99
	c0.12-0.17,0.23-0.34,0.35-0.51c0.02-0.02,0.06-0.03,0.09-0.03c0.99,0,1.98,0,2.97,0h0.53l-5.59,8.11l3.38,4.88
	c-0.04,0-0.06,0.01-0.08,0.01c-1.13,0-2.25,0-3.38,0c-0.06,0-0.11-0.03-0.14-0.08c-0.24-0.34-0.47-0.68-0.71-1.03
	c-0.21-0.31-0.43-0.63-0.64-0.94c-0.06-0.09-0.13-0.18-0.2-0.27c-0.13,0.19-0.27,0.38-0.4,0.58c-0.24,0.34-0.47,0.68-0.71,1.03
	c-0.15,0.22-0.31,0.45-0.46,0.67c-0.02,0.03-0.04,0.04-0.07,0.05c-1.18,0-2.36,0-3.56,0c1.14-1.65,2.27-3.28,3.41-4.92l-4.49-6.48
	L11.52,19l1.32,1.91c0.1-0.14,0.19-0.27,0.28-0.4c0.2-0.29,0.4-0.58,0.6-0.87c0.2-0.29,0.4-0.58,0.6-0.87
	c0.19-0.28,0.38-0.55,0.58-0.83c0.03-0.03,0.07-0.04,0.11-0.04c0.97,0,1.94,0,2.91,0h0.56c-0.09,0.13-0.16,0.24-0.24,0.35
	c-0.22,0.32-0.44,0.64-0.66,0.95c-0.32,0.46-0.64,0.92-0.96,1.38c-0.32,0.46-0.64,0.92-0.96,1.38c-0.24,0.35-0.48,0.7-0.73,1.05
	c-0.31,0.44-0.61,0.88-0.92,1.32c-0.24,0.34-0.48,0.69-0.71,1.03c-0.13,0.19-0.27,0.39-0.41,0.58c-0.02,0.04-0.06,0.05-0.09,0.03
	c-0.01-0.01-0.02-0.02-0.03-0.03c-0.21-0.3-0.41-0.61-0.62-0.91c-0.32-0.47-0.65-0.93-0.97-1.4c-0.31-0.45-0.63-0.91-0.94-1.36
	c-0.16-0.23-0.32-0.45-0.47-0.68c-0.01-0.01-0.02-0.02-0.02-0.02c-0.2,0.29-0.39,0.57-0.59,0.85c-0.03,0.04-0.06,0.06-0.11,0.06
	c-1.16,0-2.32,0-3.47,0c-0.02,0-0.03,0-0.06,0c0.1-0.15,0.19-0.29,0.29-0.42c0.26-0.38,0.52-0.75,0.78-1.12
	c0.32-0.46,0.64-0.92,0.96-1.38c0.12-0.18,0.25-0.35,0.37-0.53c0.03-0.03,0.03-0.08,0-0.11c0,0,0,0,0,0l0,0l0,0
	c-0.14-0.19-0.27-0.39-0.41-0.58c-0.22-0.31-0.43-0.63-0.64-0.94c-0.25-0.37-0.51-0.73-0.77-1.1C5.87,16,5.66,15.68,5.45,15.37
	c-0.29-0.42-0.58-0.83-0.87-1.25c-0.2-0.29-0.39-0.58-0.59-0.86c-0.27-0.39-0.55-0.78-0.82-1.17c-0.2-0.29-0.39-0.58-0.59-0.86
	c-0.31-0.45-0.62-0.89-0.93-1.34C1.56,9.77,1.48,9.65,1.38,9.52c0.04,0,0.07-0.01,0.1-0.01c1.14,0,2.27,0,3.41,0
	c0.06,0,0.11,0.03,0.14,0.08c0.3,0.43,0.59,0.85,0.88,1.28c0.22,0.33,0.44,0.65,0.66,0.98c0.23,0.34,0.47,0.68,0.71,1.02
	c0.2,0.29,0.4,0.59,0.6,0.88c0.23,0.34,0.46,0.67,0.69,1.01s0.46,0.67,0.69,1.01c0.14,0.2,0.28,0.4,0.42,0.6
	c0.01,0.01,0.02,0.03,0.04,0.04c0.07-0.1,0.14-0.19,0.2-0.28c0.2-0.29,0.4-0.58,0.61-0.88c0.2-0.29,0.39-0.57,0.59-0.86
	c0.26-0.37,0.52-0.74,0.78-1.11c0.23-0.32,0.45-0.65,0.67-0.97c0.22-0.32,0.44-0.63,0.66-0.95c0.27-0.4,0.54-0.79,0.82-1.18
	c0.25-0.37,0.51-0.73,0.77-1.1c0.22-0.31,0.43-0.63,0.64-0.94c0.27-0.39,0.55-0.78,0.82-1.17c0.2-0.29,0.39-0.58,0.59-0.86
	C16.9,6.05,16.93,6.02,16.96,6H16.98z"/>
</svg>
